# Blender v3.2.0 OBJ File: 'untitled.blend'
# www.blender.org
o SM_Buildings_Block_1x1_01_Mesh
v -10.000000 -2.000000 10.000000
v 10.000000 -2.000000 10.000000
v -10.000000 -0.000000 10.000002
v 10.000000 -0.000000 10.000002
v -10.000000 0.000000 -9.999997
v 10.000000 0.000000 -9.999997
v -10.000000 -2.000000 -10.000000
v 10.000000 -2.000000 -10.000000
vt 0.247760 0.303287
vt 0.247760 0.303287
vt 0.247760 0.303287
vt 0.247760 0.303287
vt 0.247760 0.303287
vt 0.247760 0.303287
vt 0.247760 0.303287
vt 0.247760 0.303287
vn 0.0000 -0.0000 1.0000
vn 0.0000 1.0000 0.0000
vn 0.0000 0.0000 -1.0000
vn 0.0000 -1.0000 0.0000
vn 1.0000 0.0000 0.0000
vn -1.0000 0.0000 0.0000
s 1
f 1/1/1 2/2/1 3/3/1
f 3/3/1 2/2/1 4/4/1
f 3/3/2 4/4/2 5/5/2
f 5/5/2 4/4/2 6/6/2
f 5/5/3 6/6/3 7/7/3
f 7/7/3 6/6/3 8/8/3
f 7/7/4 8/8/4 1/1/4
f 1/1/4 8/8/4 2/2/4
f 2/2/5 8/8/5 4/4/5
f 4/4/5 8/8/5 6/6/5
f 7/7/6 1/1/6 5/5/6
f 5/5/6 1/1/6 3/3/6
